<?xml version="1.0" encoding="utf-8"?>
<!-- Generator: Adobe Illustrator 24.3.0, SVG Export Plug-In . SVG Version: 6.00 Build 0)  -->
<svg version="1.1" id="Capa_1" xmlns="http://www.w3.org/2000/svg" xmlns:xlink="http://www.w3.org/1999/xlink" x="0px" y="0px"
	 viewBox="0 0 480 480" style="enable-background:new 0 0 480 480;" xml:space="preserve">
<g>
	<g>
		<path fill="#757C8C" d="M440,72H40C17.9,72,0,89.9,0,112v144c0,22.1,17.9,40,40,40h400c22.1,0,40-17.9,40-40V112C480,89.9,462.1,72,440,72z
			 M416,280H64v-32h352V280z M464,256c0,13.3-10.7,24-24,24h-8v-48H48v48h-8c-13.3,0-24-10.7-24-24V112c0-13.3,10.7-24,24-24h400
			c13.3,0,24,10.7,24,24V256z"/>
	</g>
</g>
<g>
	<g>
		<path fill="#757C8C" d="M424,104H56c-4.4,0-8,3.6-8,8s3.6,8,8,8h368c4.4,0,8-3.6,8-8S428.4,104,424,104z"/>
	</g>
</g>
<g>
	<g>
		<path fill="#757C8C" d="M424,143H56c-4.4,0-8,3.6-8,8s3.6,8,8,8h368c4.4,0,8-3.6,8-8S428.4,143,424,143z"/>
	</g>
</g>
<g>
	<g>
		<rect fill="#757C8C" x="48" y="200" width="32" height="16"/>
	</g>
</g>
<g>
	<g>
		<rect fill="#757C8C" x="96" y="200" width="32" height="16"/>
	</g>
</g>
<g>
	<g>
		<path fill="#757C8C" d="M214.2,335c-4-3.9-6.3-9.4-6.2-15c0-4.4-3.6-8-8-8s-8,3.6-8,8c-0.1,9.3,3.4,18.2,9.8,25c8.3,8.2,8.3,21.6,0.1,29.9
			c0,0-0.1,0.1-0.1,0.1c-6.3,6.8-9.8,15.7-9.8,25c0,4.4,3.6,8,8,8s8-3.6,8-8c-0.1-5.6,2.2-11.1,6.2-15
			C227.3,370.9,227.3,349.1,214.2,335z"/>
	</g>
</g>
<g>
	<g>
		<path fill="#757C8C" d="M254.2,335c-4-3.9-6.3-9.4-6.2-15c0-4.4-3.6-8-8-8s-8,3.6-8,8c-0.1,9.3,3.4,18.2,9.8,25c8.3,8.2,8.3,21.6,0.1,29.9
			c0,0-0.1,0.1-0.1,0.1c-6.3,6.8-9.8,15.7-9.8,25c0,4.4,3.6,8,8,8s8-3.6,8-8c-0.1-5.6,2.2-11.1,6.2-15
			C267.3,370.9,267.3,349.1,254.2,335z"/>
	</g>
</g>
<g>
	<g>
		<path fill="#757C8C" d="M294.2,335c-4-3.9-6.3-9.4-6.2-15c0-4.4-3.6-8-8-8s-8,3.6-8,8c-0.1,9.3,3.4,18.2,9.8,25c8.3,8.2,8.3,21.6,0.1,29.9
			c0,0-0.1,0.1-0.1,0.1c-6.3,6.8-9.8,15.7-9.8,25c0,4.4,3.6,8,8,8s8-3.6,8-8c-0.1-5.6,2.2-11.1,6.2-15
			C307.3,370.9,307.3,349.1,294.2,335z"/>
	</g>
</g>
</svg>
