<?xml version="1.0" encoding="utf-8"?>
<!-- Generator: Adobe Illustrator 24.3.0, SVG Export Plug-In . SVG Version: 6.00 Build 0)  -->
<svg version="1.1" id="Capa_1" xmlns="http://www.w3.org/2000/svg" xmlns:xlink="http://www.w3.org/1999/xlink" x="0px" y="0px"
	 viewBox="0 0 480 480" style="enable-background:new 0 0 480 480;" xml:space="preserve">
<g>
	<g>
		<path fill="#757C8C" d="M472,440H357.8L347,407.8c38.5-1.6,68.9-33.3,69-71.8v-40h8c13.2,0,24-10.7,24-23.9c0-10.2-6.4-19.2-16-22.6V224
			c0-4.4-3.6-8-8-8h-24V32c0-4.4-3.6-8-8-8H280c-4.4,0-8,3.6-8,8v40.6c-27.5,4-48,27.5-48,55.4v16c0,4.4,3.6,8,8,8h96
			c4.4,0,8-3.6,8-8v-16c0-27.8-20.5-51.4-48-55.4V40h96v176h-24c-4.4,0-8,3.6-8,8v24H56c-13.3,0-24,10.7-24,24s10.7,24,24,24h8v40
			c0,38.5,30.4,70.2,69,71.8L122.2,440H8c-4.4,0-8,3.6-8,8s3.6,8,8,8h464c4.4,0,8-3.6,8-8S476.4,440,472,440z M320,128v8h-80v-8
			c0-22.1,17.9-40,40-40S320,105.9,320,128z M400,232h16v16h-16V232z M368,232h16v16h-16V232z M56,280c-4.4,0-8-3.6-8-8s3.6-8,8-8
			h368c4.4,0,8,3.6,8,8s-3.6,8-8,8H56z M154.2,440h-15.1l10.7-32h15.1L154.2,440z M171.1,440l10.7-32h116.5l10.7,32H171.1z
			 M325.8,440l-10.7-32h15.1l10.7,32H325.8z M136,392c-30.9,0-56-25.1-56-56v-40h320v40c0,30.9-25.1,56-56,56H136z"/>
	</g>
</g>
<g>
	<g>
		<path fill="#757C8C" d="M200,312h-79.5c-4.4,0-8.8,3.6-8.8,8s4.4,8,8.8,8H200c4.4,0,8-3.6,8-8S204.4,312,200,312z"/>
	</g>
</g>
<g>
	<g>
		<path fill="#757C8C" d="M232,168c-4.4,0-8,3.6-8,8v24c0,4.4,3.6,8,8,8s8-3.6,8-8v-24C240,171.6,236.4,168,232,168z"/>
	</g>
</g>
<g>
	<g>
		<path fill="#757C8C" d="M264,192c-4.4,0-8,3.6-8,8v24c0,4.4,3.6,8,8,8s8-3.6,8-8v-24C272,195.6,268.4,192,264,192z"/>
	</g>
</g>
<g>
	<g>
		<path fill="#757C8C" d="M296,168c-4.4,0-8,3.6-8,8v24c0,4.4,3.6,8,8,8s8-3.6,8-8v-24C304,171.6,300.4,168,296,168z"/>
	</g>
</g>
<g>
	<g>
		<path fill="#757C8C" d="M328,192c-4.4,0-8,3.6-8,8v24c0,4.4,3.6,8,8,8s8-3.6,8-8v-24C336,195.6,332.4,192,328,192z"/>
	</g>
</g>
</svg>
