<?xml version="1.0" encoding="utf-8"?>
<!-- Generator: Adobe Illustrator 24.3.0, SVG Export Plug-In . SVG Version: 6.00 Build 0)  -->
<svg version="1.1" id="Capa_1" xmlns="http://www.w3.org/2000/svg" xmlns:xlink="http://www.w3.org/1999/xlink" x="0px" y="0px"
	 viewBox="0 0 512 512" style="enable-background:new 0 0 512 512;" xml:space="preserve">
<g>
	<path fill="#757C8C" d="M281.6,182.2h-9.1c-4.1,0-7.5,3.4-7.5,7.5v24.9c0,0.4-0.4,0.8-0.8,0.8h-74c-4.1,0-7.5,3.4-7.5,7.5s3.4,7.5,7.5,7.5h74
		c8.7,0,15.8-7.1,15.8-15.8v-17.4h18.1v17.4c0,8.7,7.1,15.8,15.8,15.8h17.4v18.1H314c-8.7,0-15.8,7.1-15.8,15.8v17.4h-18.1v-17.4
		c0-8.7-7.1-15.8-15.8-15.8H115.2c-8.7,0-15.8,7.1-15.8,15.8v132.5c0,8.7,7.1,15.8,15.8,15.8h149.1c8.7,0,15.8-7.1,15.8-15.8v-33.9
		h18.1v33.9c0,8.7,7.1,15.8,15.8,15.8h149.1c8.7,0,15.8-7.1,15.8-15.8V264.3c0-8.7-7.1-15.8-15.8-15.8h-50.5v-18.1h50.5
		c8.7,0,15.8-7.1,15.8-15.8v-17.3H497v232.7c0,0.4-0.4,0.8-0.8,0.8H82c-0.4,0-0.8-0.4-0.8-0.8V15.8c0-0.4,0.4-0.8,0.8-0.8h324.6
		c4.1,0,7.5-3.4,7.5-7.5S410.8,0,406.7,0H82c-1.7,0-3.4,0.3-4.9,0.8C76.1,0.3,75,0,73.8,0H57.2c-4.1,0-7.5,3.4-7.5,7.5
		s3.4,7.5,7.5,7.5h9.1c0,0.3,0,0.5,0,0.8v414.2c0,0.3,0,0.5,0,0.8h-9.1c-4.1,0-7.5,3.4-7.5,7.5s3.4,7.5,7.5,7.5h9.1v9.1
		c0,4.1,3.4,7.5,7.5,7.5s7.5-3.4,7.5-7.5v-9.1c0.3,0,0.5,0,0.8,0h414.2c0.3,0,0.5,0,0.8,0v9.1c0,4.1,3.4,7.5,7.5,7.5
		s7.5-3.4,7.5-7.5v-16.6c0-1.2-0.3-2.3-0.8-3.4c0.5-1.6,0.8-3.2,0.8-4.9V189.7c0-4.1-3.4-7.5-7.5-7.5l0,0h-9.1v-9.1
		c0-4.1-3.4-7.5-7.5-7.5s-7.5,3.4-7.5,7.5v9.1h-9.1c-4.1,0-7.5,3.4-7.5,7.5v24.8c0,0.4-0.4,0.8-0.8,0.8h-58c-4.1,0-7.5,3.4-7.5,7.5
		v9.1l0,0c0-9.1,0.2,3.7,0.2,7.8s-0.2,16.2-0.2,7.2l0,0v9.1c0,4.1,3.4,7.5,7.5,7.5h58c0.4,0,0.8,0.4,0.8,0.8v132.5
		c0,0.4-0.4,0.8-0.8,0.8H314c-0.4,0-0.8-0.4-0.8-0.8v-41.4c0-4.1-3.4-7.5-7.5-7.5h-9.1l0,0c6.9,0-3.3,0.1-7.5,0.1s-15.7-0.1-7.5-0.1
		l0,0h-9.1c-4.1,0-7.5,3.4-7.5,7.5v41.4c0,0.4-0.4,0.8-0.8,0.8H115.2c-0.4,0-0.8-0.4-0.8-0.8V264.3c0-0.4,0.4-0.8,0.8-0.8h149.1
		c0.4,0,0.8,0.4,0.8,0.8v24.9c0,4.1,3.4,7.5,7.5,7.5h9.1l0,0c-9.1,0,3.1,0,7.3,0s15.4,0,7.7,0l0,0h9.1c4.1,0,7.5-3.4,7.5-7.5v-24.9
		c0-0.4,0.4-0.8,0.8-0.8h24.9c4.1,0,7.5-3.4,7.5-7.5v-25.6v16.6c0,9.1,0-3.5,0-7.6s-0.2-18.2,0-7.4l0,0v-9.1c0-4.1-3.4-7.5-7.5-7.5
		H314c-0.4,0-0.8-0.4-0.8-0.8v-24.9c0-4.1-3.4-7.5-7.5-7.5h-9.1"/>
	<path fill="#757C8C" d="M264.3,33.1H115.2c-8.7,0-15.8,7.1-15.8,15.8v165.7c0,8.7,7.1,15.8,15.8,15.8h45.1c4.1,0,7.5-3.4,7.5-7.5s-3.4-7.5-7.5-7.5
		h-45.1c-0.4,0-0.8-0.4-0.8-0.8V48.9c0-0.4,0.4-0.8,0.8-0.8h149.1c0.4,0,73.7-0.4,73.7,0"/>
	<path fill="#757C8C" d="M248,48.1c0-0.4,65.6,0,66,0h149.1c0.4,0,0.8,0.4,0.8,0.8v74.6c0,2,0.8,3.9,2.2,5.3c1.4,1.4,3.3,2.2,5.3,2.2h9.1v9.1
		c0,4.1,3.4,7.5,7.5,7.5s7.5-3.4,7.5-7.5V131h9.1c4.1,0,7.5-3.4,7.5-7.5V15.8C512,7.1,504.9,0,496.2,0l0,0h-59.5
		c-4.1,0-7.5,3.4-7.5,7.5s3.4,7.5,7.5,7.5h59.5c0.4,0,0.8,0.4,0.8,0.8V116h-8.7c-0.1,0-0.2,0-0.3,0s-0.2,0-0.3,0l-8.7,0V48.9
		c0-8.7-7.1-15.8-15.8-15.8H264.3"/>
	<path fill="#757C8C" d="M471.4,463.9c-4.1,0-7.5,3.4-7.5,7.5v9.1H114.4v-9.1c0-4.1-3.4-7.5-7.5-7.5s-7.5,3.4-7.5,7.5v33.1c0,4.1,3.4,7.5,7.5,7.5
		s7.5-3.4,7.5-7.5v-9.1h349.5v9.1c0,4.1,3.4,7.5,7.5,7.5s7.5-3.4,7.5-7.5v-33.1C478.9,467.2,475.5,463.9,471.4,463.9z"/>
	<path fill="#757C8C" d="M7.5,397.6c-4.1,0-7.5,3.4-7.5,7.5s3.4,7.5,7.5,7.5h33.1c4.1,0,7.5-3.4,7.5-7.5s-3.4-7.5-7.5-7.5h-9.1V48.1h9.1
		c4.1,0,7.5-3.4,7.5-7.5s-3.4-7.5-7.5-7.5H7.5c-4.1,0-7.5,3.4-7.5,7.5s3.4,7.5,7.5,7.5h9.1v349.5H7.5z"/>
	<path fill="#757C8C" d="M7.5,445.7h16.6c4.1,0,7.5-3.4,7.5-7.5s-3.4-7.5-7.5-7.5H7.5c-4.1,0-7.5,3.4-7.5,7.5C0,442.4,3.4,445.7,7.5,445.7z"/>
	<path fill="#757C8C" d="M7.5,15h16.6c4.1,0,7.5-3.4,7.5-7.5S28.2,0,24.1,0H7.5C3.4,0,0,3.4,0,7.5S3.4,15,7.5,15z"/>
	<path fill="#757C8C" d="M73.8,480.4c-4.1,0-7.5,3.4-7.5,7.5v16.6c0,4.1,3.4,7.5,7.5,7.5s7.5-3.4,7.5-7.5v-16.6C81.3,483.8,77.9,480.4,73.8,480.4z"
		/>
	<path fill="#757C8C" d="M504.5,480.4c-4.1,0-7.5,3.4-7.5,7.5v16.6c0,4.1,3.4,7.5,7.5,7.5s7.5-3.4,7.5-7.5v-16.6C512,483.8,508.6,480.4,504.5,480.4
		z"/>
	<path fill="#757C8C" d="M45.9,466.1c-2.9-2.9-7.7-2.9-10.6,0l-11.3,11.3l-11.3-11.3c-2.9-2.9-7.7-2.9-10.6,0c-2.9,2.9-2.9,7.7,0,10.6l11.3,11.3
		L2.2,499.2c-2.9,2.9-2.9,7.7,0,10.6c1.5,1.5,3.4,2.2,5.3,2.2s3.8-0.7,5.3-2.2l11.3-11.3l11.3,11.3c1.5,1.5,3.4,2.2,5.3,2.2
		s3.8-0.7,5.3-2.2c2.9-2.9,2.9-7.7,0-10.6l-11.3-11.3l11.3-11.3C48.9,473.7,48.9,469,45.9,466.1L45.9,466.1z"/>
</g>
</svg>
