<?xml version="1.0" encoding="utf-8"?>
<!-- Generator: Adobe Illustrator 24.3.0, SVG Export Plug-In . SVG Version: 6.00 Build 0)  -->
<svg version="1.1" id="Capa_1" xmlns="http://www.w3.org/2000/svg" xmlns:xlink="http://www.w3.org/1999/xlink" x="0px" y="0px"
	 viewBox="0 0 512 512" style="enable-background:new 0 0 512 512;" xml:space="preserve">
<g>
	<g>
		<path fill="#757C8C" d="M142.1,333.4c0,6,4.9,10.9,10.9,10.9h200c4,0,7.3-3.3,7.3-7.3s-3.3-7.3-7.3-7.3h-24.2v-53.6h19.8c19.6,0,38.1,7.6,52,21.5
			c9.6,9.6,20.6,17.6,32.6,23.8c1.5,0.8,2.4,2.2,2.4,3.9c0,2.4-2,4.4-4.4,4.4h-30.2c-4,0-7.3,3.3-7.3,7.3s3.3,7.3,7.3,7.3H431
			c10.5,0,19-8.5,19-19c0-7.1-3.9-13.6-10.2-16.8c-10.7-5.5-20.4-12.7-29-21.2c-16.7-16.6-38.8-25.7-62.3-25.7H260
			c-17.7,0-34.8,5.2-49.4,15.1l-48.2,32.6c-3,2-6.1,3.9-9.3,5.7C146.3,318.7,142.1,325.7,142.1,333.4z M157.8,329.7
			c0.6-0.8,1.3-1.5,2.3-2c3.5-2,7-4.1,10.4-6.3l48.2-32.6c12.2-8.3,26.5-12.6,41.2-12.6h54.1v53.6H157.8z"/>
	</g>
</g>
<g>
	<g>
		<path fill="#757C8C" d="M288.7,362.7c0,4,3.3,7.3,7.3,7.3h22.5c4,0,7.3-3.3,7.3-7.3s-3.3-7.3-7.3-7.3H296C292,355.4,288.7,358.7,288.7,362.7z"/>
	</g>
</g>
<g>
	<g>
		<path fill="#757C8C" d="M0,371.9l0,37.8c0,14.9,12.1,27,27,27h13.8c2.2,7.7,6.3,15,12.3,21.1C62.4,467,74.5,472,87.4,472c12.9,0,25.1-5,34.2-14.2
			c6.1-6.1,10.2-13.4,12.3-21.1h242.2c2.2,7.7,6.3,15,12.3,21.1c9.4,9.4,21.8,14.1,34.2,14.1s24.8-4.7,34.2-14.1
			c7.1-7.1,11.5-15.9,13.3-25.1l29.1-12.9c7.7-3.4,12.7-11.1,12.7-19.5v-70.6c0-15.9-11.3-29.8-26.9-33.1l-10.5-2.2
			c-18.2-3.8-34.9-12.8-48.1-26c-20.9-20.8-48.6-32.2-78.1-32.2H260c-22.1,0-43.6,6.6-61.9,19l-48.2,32.6
			c-8.6,5.8-21.7,13.9-35,16.6l-9.7,1.9v-87.9h55.3c10,0,18.2-8.2,18.2-18.2v-40.7c0-4-3.3-7.3-7.3-7.3s-7.3,3.3-7.3,7.3v40.7
			c0,2-1.6,3.6-3.6,3.6H18.3c-2,0-3.6-1.6-3.6-3.6V58.2c0-2,1.6-3.6,3.6-3.6h142.1c2,0,3.6,1.6,3.6,3.6v53.9c0,4,3.3,7.3,7.3,7.3
			s7.3-3.3,7.3-7.3V58.2c0-10-8.2-18.2-18.2-18.2H18.3c-10,0-18.2,8.2-18.2,18.2l0,142.1c0,10,8.2,18.2,18.2,18.2h48.7v95.4
			l-18.8,3.7c-16.5,3.3-30.9,13.4-39.6,27.8l-2.3,3.8C2.2,356.1,0,363.9,0,371.9z M90.5,309.2l-8.9,1.8v-92.5h8.9V309.2z
			 M394.5,405.1c0-0.1,0.1-0.1,0.1-0.2c0.3-0.4,0.5-0.7,0.8-1.1c0.1-0.2,0.2-0.3,0.4-0.5c0.2-0.3,0.4-0.6,0.7-0.9
			c0.2-0.3,0.4-0.5,0.6-0.8c0.2-0.2,0.3-0.4,0.5-0.6c0.4-0.5,0.8-0.9,1.3-1.4c0.4-0.4,0.8-0.8,1.2-1.2c0.1-0.1,0.1-0.1,0.2-0.2
			c0.4-0.3,0.7-0.6,1.1-1c0,0,0,0,0,0c12.3-10,30.2-10,42.5,0c0,0,0.1,0.1,0.1,0.1c0.4,0.3,0.7,0.6,1,0.9c0.1,0.1,0.2,0.2,0.3,0.2
			c0.3,0.3,0.7,0.6,1,1c0.1,0.1,0.2,0.1,0.2,0.2c0,0,0.1,0.1,0.1,0.1c0.4,0.4,0.8,0.8,1.1,1.2c0.1,0.2,0.3,0.3,0.4,0.5
			c0.2,0.3,0.5,0.6,0.7,0.9c0.2,0.2,0.3,0.4,0.5,0.6c0.2,0.3,0.4,0.5,0.6,0.8c0.2,0.2,0.3,0.5,0.5,0.7c0.2,0.2,0.3,0.5,0.5,0.7
			c0.2,0.3,0.3,0.5,0.5,0.8c0.1,0.2,0.3,0.4,0.4,0.6c0.2,0.3,0.4,0.6,0.5,0.9c0.1,0.2,0.2,0.3,0.3,0.5c0.2,0.4,0.4,0.7,0.5,1.1
			c0,0.1,0.1,0.2,0.1,0.3c5.7,12.5,3.4,27.7-6.8,37.9c-6.4,6.4-14.9,9.9-23.9,9.9s-17.5-3.5-23.9-9.9
			C387.4,436,385.9,418.2,394.5,405.1z M59.2,405.1c0-0.1,0.1-0.1,0.1-0.2c0.2-0.4,0.5-0.7,0.8-1.1c0.1-0.2,0.2-0.3,0.4-0.5
			c0.2-0.3,0.4-0.6,0.7-0.9c0.2-0.3,0.4-0.5,0.6-0.8c0.2-0.2,0.3-0.4,0.5-0.6c0.4-0.5,0.8-0.9,1.3-1.4c6.4-6.4,14.9-9.9,23.9-9.9
			s17.5,3.5,23.9,9.9c0.4,0.4,0.9,0.9,1.3,1.4c0.2,0.2,0.4,0.4,0.5,0.6c0.2,0.2,0.4,0.5,0.6,0.7c0.2,0.3,0.5,0.6,0.7,0.9
			c0.1,0.2,0.2,0.3,0.4,0.5c0.3,0.4,0.5,0.7,0.8,1.1c0,0.1,0.1,0.1,0.1,0.2c8.6,13.1,7.1,30.9-4.4,42.4c-6.4,6.4-14.9,9.9-23.9,9.9
			s-17.5-3.5-23.9-9.9C52,436,50.6,418.2,59.2,405.1z M14.6,371.9c0-5.3,1.5-10.5,4.2-15.1l2.3-3.8c6.6-10.9,17.5-18.6,30-21.1
			l66.6-13.2c15.9-3.2,30.7-12.2,40.3-18.8l48.2-32.6c15.9-10.8,34.5-16.5,53.7-16.5h88.5c25.6,0,49.6,9.9,67.8,28
			c15.2,15.2,34.4,25.5,55.4,29.9l10.5,2.2c8.8,1.9,15.3,9.8,15.3,18.8v70.6c0,2.7-1.6,5.1-4,6.2l-22.7,10.1
			c-0.8-5.4-2.5-10.7-5-15.5c0,0,0,0,0-0.1c-0.4-0.7-0.7-1.3-1.1-2c0,0,0-0.1-0.1-0.1c-0.8-1.3-1.6-2.6-2.5-3.9
			c-0.1-0.1-0.2-0.3-0.3-0.4c-0.3-0.5-0.7-0.9-1-1.4c-0.1-0.2-0.3-0.4-0.5-0.6c-0.3-0.4-0.7-0.8-1.1-1.2c-0.1-0.2-0.3-0.3-0.4-0.5
			c-0.5-0.6-1-1.1-1.6-1.7c-9.4-9.4-21.8-14.1-34.2-14.1c-9.3,0-18.6,2.7-26.6,8c-2.7,1.8-5.2,3.8-7.6,6.2c-0.6,0.6-1.1,1.2-1.7,1.8
			c-0.1,0.1-0.2,0.2-0.3,0.3c-0.5,0.5-0.9,1-1.4,1.6c0,0-0.1,0.1-0.1,0.1c-6.7,8.3-10.5,18.4-10.8,29H135.8
			c-0.3-10.6-4-20.7-10.8-29c0-0.1-0.1-0.1-0.1-0.2c-0.4-0.5-0.9-1-1.3-1.5c-0.1-0.1-0.2-0.2-0.3-0.4c-0.5-0.5-0.9-1-1.4-1.5
			c-0.1-0.1-0.2-0.2-0.2-0.3c-6.9-6.9-15.4-11.4-24.7-13.2c-3.1-0.6-6.3-0.9-9.5-0.9c-4,0-8,0.5-11.8,1.4
			c-8.4,2.1-16.1,6.4-22.4,12.7c-0.1,0.1-0.2,0.2-0.2,0.3c-0.5,0.5-1,1-1.4,1.5c-0.1,0.1-0.2,0.3-0.3,0.4c-0.4,0.5-0.9,1-1.3,1.5
			c0,0.1-0.1,0.1-0.1,0.2c-6.7,8.3-10.5,18.4-10.7,28.9H27c-6.9,0-12.5-5.6-12.5-12.5h0V371.9z"/>
	</g>
</g>
<g>
	<g>
		<path fill="#757C8C" d="M407.1,439.3c4.2,4.2,9.7,6.5,15.7,6.5c5.9,0,11.5-2.3,15.7-6.5c4.2-4.2,6.5-9.7,6.5-15.7c0-5.9-2.3-11.5-6.5-15.7
			s-9.7-6.5-15.7-6.5s-11.5,2.3-15.7,6.5C398.5,416.6,398.5,430.7,407.1,439.3z M417.4,418.3c1.4-1.4,3.3-2.2,5.3-2.2
			c2,0,3.9,0.8,5.3,2.2c1.4,1.4,2.2,3.3,2.2,5.3c0,2-0.8,3.9-2.2,5.3c-1.4,1.4-3.3,2.2-5.3,2.2c-2,0-3.9-0.8-5.3-2.2
			C414.5,426,414.5,421.2,417.4,418.3z"/>
	</g>
</g>
<g>
	<g>
		<path fill="#757C8C" d="M65.3,423.6c0,5.9,2.3,11.5,6.5,15.7c4.2,4.2,9.7,6.5,15.7,6.5c5.9,0,11.5-2.3,15.7-6.5c8.6-8.6,8.6-22.7,0-31.3
			c-4.2-4.2-9.7-6.5-15.7-6.5c-5.9,0-11.5,2.3-15.7,6.5C67.6,412.2,65.3,417.7,65.3,423.6z M79.9,423.6c0-2,0.8-3.9,2.2-5.3
			c1.4-1.4,3.3-2.2,5.3-2.2c2,0,3.9,0.8,5.3,2.2c2.9,2.9,2.9,7.7,0,10.7c-1.4,1.4-3.3,2.2-5.3,2.2c-2,0-3.9-0.8-5.3-2.2
			C80.7,427.6,79.9,425.7,79.9,423.6z"/>
	</g>
</g>
<g>
	<g>
		<path fill="#757C8C" d="M92,82.1H67c-3.7,0-6.1,2.4-6.1,5h0v80.8c0,3.4,4,5.1,8.1,5.1c4,0,8.1-1.7,8.1-5.1V139H91c16.4,0,29.2-7.8,29.2-28.2V110
			C120.2,89.6,107.7,82.1,92,82.1z M104,112c0,9.7-5,14.3-13.1,14.3H77V96.2H91c8.1,0,13.1,4.6,13.1,14.3L104,112L104,112z"/>
	</g>
</g>
</svg>
